<svg width="351" height="217" viewBox="0 0 351 217" fill="none" xmlns="http://www.w3.org/2000/svg" xmlns:xlink="http://www.w3.org/1999/xlink">
  <rect x="1" y="1" width="349" height="215.262" rx="14.1737" fill="white"></rect>
  <mask id="Sticky-duplicate-mask0_3006_211229" style="mask-type:alpha" maskUnits="userSpaceOnUse" x="1" y="1" width="349" height="216">
  <rect x="1" y="1" width="349" height="215.262" rx="14.17" fill="black"></rect>
  </mask>
  <g mask="url(#Sticky-duplicate-mask0_3006_211229)">
  <path d="M172.571 237.297C151.4 236.343 144.973 213.843 145.918 202.784C143.92 188.483 158.205 186.004 169.168 181.619C180.132 177.233 199.413 186.576 205.084 202.784C210.754 218.992 193.742 238.25 172.571 237.297Z" fill="#C9EBDA"></path>
  <path d="M112.905 -1.85987C84.1162 -20.2703 57.945 -27.3832 14.3261 -19.8519C-7.04709 -17.7598 -53.4524 13.6137 -13.5899 103.582C1.24148 137.056 30.9012 152.537 63.1792 159.65C95.4571 166.763 99.3828 149.608 105.926 132.871C112.468 116.134 120.756 109.858 149.108 84.3346C177.46 58.811 141.693 16.5506 112.905 -1.85987Z" fill="#C9EBDA"></path>
  <path d="M183.647 105.787C195.083 96.4639 200.738 86.99 200.611 69.1891C201.336 60.6324 189.69 39.2709 142.088 45.492C124.377 47.8066 114.313 57.7736 108.157 69.6303C102.001 81.4869 110.13 84.7983 117.839 89.0875C125.548 93.3766 127.959 97.2615 138.205 110.972C148.452 124.682 172.212 115.11 183.647 105.787Z" fill="#C9EBDA"></path>
  <path fill-rule="evenodd" clip-rule="evenodd" d="M155.363 44.4116C151.285 44.521 146.868 44.8676 142.089 45.4922C124.378 47.8068 114.313 57.7738 108.157 69.6305C102.424 80.6712 109.079 84.3023 116.247 88.213C116.776 88.502 117.309 88.7925 117.839 89.0877C123.209 92.0756 126.008 94.8672 130.676 100.921C133.842 98.0239 137.427 94.8121 141.514 91.1506C143.873 89.0371 146.399 86.7738 149.108 84.3348C161.574 73.1127 161.645 58.655 155.363 44.4116Z" fill="#9ED9BA"></path>
  <path d="M333.156 144.772C344.307 156.402 355.115 161.726 374.48 160.026C383.857 160.065 406.087 145.517 395.142 94.2485C391.069 75.1734 379.338 65.0928 365.893 59.4314C352.447 53.7699 349.555 62.9094 345.563 71.6762C341.57 80.443 337.553 83.4085 323.528 95.7635C309.503 108.118 322.005 133.141 333.156 144.772Z" fill="#C9EBDA"></path>
  <path d="M86.2188 72.5327H38.5371V108.801H86.2188V72.5327Z" fill="url(#Sticky-duplicate-pattern0)"></path>
  <path d="M30.046 187.042h-1.22v-9.208h5.95v1.077h-4.73v2.963h4v1.077h-4v4.091Zm8.968-6.733v1.167a2.67 2.67 0 0 0-.564-.051c-.975 0-1.757.769-1.757 1.949v3.668h-1.154v-6.707h1.154v1.141c.295-.679.949-1.192 1.86-1.192.18 0 .346.012.46.025Zm5.968 5.271c0 .5.039 1.039.103 1.462h-1.142a8.565 8.565 0 0 1-.05-.693c-.411.488-1.155.808-2.027.808-1.218 0-2.22-.731-2.22-1.936 0-1.334 1.053-1.898 2.553-2.193l1.667-.333v-.411c0-.744-.538-1.064-1.36-1.064-.884 0-1.371.372-1.461 1.09h-1.128c.102-1.424 1.218-2.103 2.654-2.103 1.488 0 2.41.679 2.41 1.911v3.462Zm-1.116-.821v-1.167l-1.36.282c-1.025.206-1.704.488-1.704 1.296 0 .654.487 1.051 1.218 1.051.987 0 1.846-.602 1.846-1.462Zm2.982 2.283v-6.707h1.154v.91a2.39 2.39 0 0 1 2-1.038c1.424 0 2.232.987 2.232 2.411v4.424H51.08v-4.117c0-.936-.398-1.641-1.398-1.641-.834 0-1.68.641-1.68 1.757v4.001h-1.154Zm8.392-9.208v5.63l2.976-3.129h1.436l-2.616 2.642 2.834 4.065h-1.347l-2.308-3.232-.975.988v2.244h-1.154v-9.208h1.154Zm13.404 9.208h-.988l-2.81-7.579v7.579h-1.152v-9.208h1.68l2.796 7.567 2.808-7.567h1.629v9.208h-1.143v-7.579l-2.82 7.579Zm6.636-3.347c0 1.526.82 2.475 2.013 2.475.924 0 1.475-.59 1.667-1.424l1.026.475c-.32 1.116-1.295 1.962-2.693 1.962-1.872 0-3.167-1.423-3.167-3.488 0-2.078 1.295-3.488 3.167-3.488 1.398 0 2.347.808 2.668 1.923l-1 .5c-.193-.82-.744-1.423-1.668-1.423-1.192 0-2.013.949-2.013 2.488Zm13.293-5.861v9.208h-1.065l-5.027-7.412v7.412H81.3v-9.208h1.296l4.783 7.118v-7.118h1.193Zm6.804 7.746c0 .5.039 1.039.103 1.462h-1.142a8.996 8.996 0 0 1-.051-.693c-.41.488-1.154.808-2.026.808-1.218 0-2.22-.731-2.22-1.936 0-1.334 1.053-1.898 2.553-2.193l1.667-.333v-.411c0-.744-.538-1.064-1.36-1.064-.884 0-1.371.372-1.461 1.09h-1.128c.102-1.424 1.218-2.103 2.654-2.103 1.488 0 2.41.679 2.41 1.911v3.462Zm-1.116-.821v-1.167l-1.36.282c-1.025.206-1.705.488-1.705 1.296 0 .654.488 1.051 1.219 1.051.987 0 1.846-.602 1.846-1.462Zm4.136-1.731v4.014h-1.154v-6.707h1.154v.91a2.244 2.244 0 0 1 1.936-1.038c.898 0 1.526.449 1.86 1.141a2.562 2.562 0 0 1 2.141-1.141c1.385 0 2.219.987 2.219 2.411v4.424h-1.154v-4.117c0-.936-.385-1.641-1.334-1.641-.769 0-1.59.654-1.59 1.744v4.014h-1.154v-4.117c0-.936-.385-1.641-1.334-1.641-.77 0-1.59.654-1.59 1.744Zm14.851 2.552c0 .5.039 1.039.103 1.462h-1.141a8.434 8.434 0 0 1-.052-.693c-.41.488-1.154.808-2.026.808-1.218 0-2.219-.731-2.219-1.936 0-1.334 1.052-1.898 2.552-2.193l1.668-.333v-.411c0-.744-.539-1.064-1.36-1.064-.885 0-1.372.372-1.462 1.09h-1.128c.102-1.424 1.218-2.103 2.654-2.103 1.488 0 2.411.679 2.411 1.911v3.462Zm-1.115-.821v-1.167l-1.36.282c-1.026.206-1.705.488-1.705 1.296 0 .654.487 1.051 1.218 1.051.987 0 1.847-.602 1.847-1.462Zm6.456-4.45v1.167a2.673 2.673 0 0 0-.564-.051c-.975 0-1.757.769-1.757 1.949v3.668h-1.154v-6.707h1.154v1.141c.295-.679.949-1.192 1.859-1.192.18 0 .347.012.462.025Zm5.968 5.271c0 .5.039 1.039.103 1.462h-1.142a8.897 8.897 0 0 1-.051-.693c-.41.488-1.154.808-2.026.808-1.218 0-2.219-.731-2.219-1.936 0-1.334 1.052-1.898 2.552-2.193l1.667-.333v-.411c0-.744-.538-1.064-1.359-1.064-.885 0-1.372.372-1.462 1.09h-1.128c.102-1.424 1.218-2.103 2.654-2.103 1.488 0 2.411.679 2.411 1.911v3.462Zm-1.116-.821v-1.167l-1.359.282c-1.026.206-1.706.488-1.706 1.296 0 .654.488 1.051 1.219 1.051.987 0 1.846-.602 1.846-1.462Z" fill="black"></path>
  <path d="M293.699 173.561L288.82 196.999H282.894L287.774 173.561H293.699ZM318.272 188.705L321.409 179.871L323.152 188.705H318.272ZM324.895 196.999H330.297L325.592 173.561H320.538C319.492 173.561 318.446 174.282 318.098 175.364L309.384 196.999H315.484L316.704 193.573H324.197L324.895 196.999ZM309.558 189.246C309.558 183.116 301.368 182.756 301.368 180.051C301.542 178.789 302.587 178.068 303.807 178.068C305.724 177.888 307.816 178.248 309.558 179.15L310.604 174.102C308.861 173.381 306.944 173.02 305.202 173.02C299.45 173.02 295.268 176.265 295.268 180.773C295.268 184.198 298.231 186.001 300.322 187.083C302.587 188.164 303.459 188.886 303.285 189.967C303.285 191.59 301.542 192.311 299.799 192.311C297.708 192.311 295.616 191.77 293.699 190.869L292.654 195.917C294.745 196.818 297.011 197.179 299.102 197.179C305.55 197.359 309.558 194.114 309.558 189.246ZM285.334 173.561L275.923 196.999H269.65L264.944 178.248C264.944 177.347 264.247 176.626 263.55 176.265C261.807 175.364 259.89 174.643 257.799 174.282L257.973 173.561H267.907C269.301 173.561 270.347 174.643 270.521 175.905L272.961 189.426L279.235 173.561H285.334Z" fill="black"></path>
  </g>
  <path fill-rule="evenodd" clip-rule="evenodd" d="M296.685 35.1615C296.685 35.9775 296.806 36.5715 297.049 36.9431C297.293 37.3159 297.728 37.5017 298.353 37.5017V38.0603C297.814 38.007 297.275 37.9803 296.737 37.9803C295.189 37.9803 293.921 38.1041 292.931 38.353V36.0661C292.339 37.6608 291.211 38.4588 289.542 38.4588C287.908 38.4588 286.605 37.8563 285.632 36.6504C284.676 35.4273 284.207 33.5923 284.224 31.1463C284.224 29.5857 284.468 28.274 284.954 27.2102C285.458 26.1292 286.144 25.3227 287.013 24.7908C287.9 24.2407 288.907 23.9662 290.037 23.9662C291.306 23.9662 292.27 24.3027 292.931 24.9767V20.4563C292.931 19.6402 292.8 19.0463 292.539 18.6746C292.296 18.3018 291.87 18.116 291.262 18.116V17.5573C291.818 17.6107 292.357 17.6374 292.879 17.6374C294.391 17.6374 295.66 17.5125 296.685 17.2646V35.1615ZM290.611 37.3159C291.184 37.3159 291.688 37.1033 292.123 36.6771C292.574 36.252 292.844 35.6764 292.931 34.9489V25.6411C292.497 25.0386 291.862 24.7374 291.027 24.7374C290.107 24.7374 289.394 25.2779 288.89 26.3599C288.386 27.4409 288.143 29.0538 288.161 31.1997C288.143 33.3627 288.343 34.9222 288.759 35.8793C289.194 36.8373 289.811 37.3159 290.611 37.3159ZM238.934 24.3294C239.838 24.3294 240.638 24.5836 241.333 25.0933C242.045 25.6029 242.601 26.3669 243.001 27.385C243.401 28.4043 243.601 29.6505 243.601 31.1236C243.601 33.7244 243.053 35.7258 241.958 37.1264C240.881 38.5097 239.413 39.2001 237.553 39.2001C237.032 39.2001 236.536 39.1278 236.067 38.9819C235.615 38.8362 235.224 38.6181 234.894 38.3277V41.0556C234.894 41.8569 235.085 42.4115 235.467 42.7206C235.85 43.0295 236.441 43.184 237.24 43.184V43.7573L236.536 43.73C234.608 43.6752 233.382 43.6476 232.861 43.6476C232.34 43.6476 231.244 43.6849 229.576 43.7573V43.184C230.149 43.184 230.549 43.0482 230.775 42.7753C231.018 42.5199 231.14 42.0388 231.14 41.3285V27.6854C231.14 26.8491 231.01 26.2397 230.749 25.8572C230.506 25.4758 230.08 25.284 229.472 25.284V24.7108C230.028 24.7656 230.567 24.793 231.088 24.793C232.6 24.793 233.868 24.6658 234.894 24.4116V26.9214C235.259 26.0852 235.789 25.4484 236.484 25.0111C237.179 24.5562 237.996 24.3294 238.934 24.3294ZM236.536 38.4636C237.648 38.4636 238.448 37.8904 238.934 36.7451C239.421 35.5799 239.664 33.8888 239.664 31.6694C239.664 29.4499 239.465 27.8673 239.065 26.9214C238.683 25.9756 238.127 25.5021 237.396 25.5021C236.805 25.5021 236.276 25.7114 235.807 26.1301C235.354 26.5488 235.051 27.1308 234.894 27.8761V37.7271C235.311 38.2181 235.859 38.4636 236.536 38.4636ZM252.433 24.3294C254.643 24.3294 256.373 24.9 257.623 26.0403C258.872 27.164 259.497 28.9531 259.497 31.4076C259.497 33.8611 258.872 35.6502 257.623 36.7739C256.373 37.8975 254.643 38.4588 252.433 38.4588C250.241 38.4588 248.511 37.8975 247.241 36.7739C245.993 35.6502 245.367 33.8611 245.367 31.4076C245.367 28.9531 245.993 27.164 247.241 26.0403C248.511 24.9 250.241 24.3294 252.433 24.3294ZM252.433 24.848C251.606 24.848 250.942 25.3926 250.443 26.4809C249.962 27.5524 249.721 29.1947 249.721 31.4076C249.721 33.6195 249.962 35.2618 250.443 36.3334C250.942 37.4049 251.606 37.9402 252.433 37.9402C253.278 37.9402 253.942 37.4132 254.422 36.3593C254.902 35.2878 255.143 33.6372 255.143 31.4076C255.143 29.177 254.893 27.5264 254.394 26.4548C253.913 25.3832 253.258 24.848 252.433 24.848ZM280.428 24.4374C281.337 24.4374 282.013 24.4101 282.457 24.3556V24.8991C282.084 25.0082 281.746 25.2341 281.443 25.579C281.14 25.9228 280.873 26.4751 280.643 27.2358L277.092 38.4588C276.897 38.4402 276.603 38.4316 276.211 38.4316C275.837 38.4316 275.553 38.4402 275.357 38.4588L271.726 28.3774L268.764 38.4588C268.586 38.4402 268.301 38.4316 267.909 38.4316C267.518 38.4316 267.224 38.4402 267.028 38.4588L262.811 26.4478C262.598 25.8148 262.358 25.4066 262.091 25.2254C261.824 25.0268 261.547 24.9264 261.263 24.9264V24.3556C262.42 24.4647 263.683 24.5193 265.053 24.5193C265.943 24.5193 267.1 24.4647 268.524 24.3556V24.9264C267.936 24.9264 267.51 24.9722 267.242 25.0628C266.993 25.1534 266.868 25.3706 266.868 25.7144C266.868 25.9501 266.913 26.1946 267.002 26.4478L269.404 34.1379L272.314 24.3294L273.302 24.3556L274.262 24.3294L277.733 34.7087L279.414 29.2473C279.664 28.396 279.788 27.7073 279.788 27.1823C279.788 25.7689 279.085 25.0082 277.679 24.8991V24.3556C278.516 24.4101 279.432 24.4374 280.428 24.4374ZM312.472 35.2523C312.472 36.0524 312.603 36.6347 312.861 36.999C313.139 37.3645 313.601 37.5467 314.248 37.5467V38.0944C313.674 38.042 313.102 38.0158 312.528 38.0158C310.919 38.0158 309.57 38.1373 308.478 38.3813V36.0345C307.628 37.6515 306.139 38.4588 304.012 38.4588C302.625 38.4588 301.617 38.1206 300.988 37.442C300.692 37.1121 300.471 36.6859 300.323 36.1645C300.193 35.6262 300.129 34.9225 300.129 34.0534V27.4572C300.129 26.6583 299.99 26.076 299.712 25.7106C299.454 25.3462 299 25.1629 298.353 25.1629V24.6152C298.926 24.6676 299.499 24.6938 300.073 24.6938C301.682 24.6938 303.031 24.5723 304.123 24.3294V35.1225C304.123 35.8524 304.233 36.4001 304.455 36.7645C304.696 37.1299 305.141 37.3122 305.787 37.3122C306.527 37.3122 307.156 37.0252 307.673 36.4514C308.21 35.8607 308.478 35.1393 308.478 34.2879V27.4572C308.478 26.6583 308.34 26.076 308.062 25.7106C307.803 25.3462 307.35 25.1629 306.703 25.1629V24.6152C307.294 24.6676 307.868 24.6938 308.423 24.6938C310.032 24.6938 311.381 24.5723 312.472 24.3294V35.2523ZM327.723 25.0476C327.289 24.5688 326.644 24.3294 325.791 24.3294C324.939 24.3294 324.171 24.5688 323.489 25.0476C322.807 25.5093 322.286 26.1207 321.927 26.8838V24.4095C320.846 24.6575 319.463 24.7815 317.777 24.7815C317.209 24.7815 316.621 24.7547 316.014 24.7013V25.2603C316.697 25.2603 317.171 25.4473 317.436 25.8193C317.701 26.1923 317.833 26.7865 317.833 27.602V35.9835C317.833 36.7113 317.701 37.2168 317.436 37.5012C317.171 37.7663 316.697 37.8998 316.014 37.8998V38.4588C316.242 38.4588 316.431 38.4493 316.583 38.4321C318.401 38.3786 319.567 38.3519 320.078 38.3519C320.723 38.3519 322.011 38.3786 323.944 38.4321C324.115 38.4493 324.332 38.4588 324.598 38.4588V37.8998C323.67 37.8998 322.987 37.7405 322.551 37.421C322.134 37.1015 321.927 36.5338 321.927 35.7173V28.6665C321.927 27.9216 322.172 27.1937 322.665 26.484C323.177 25.7754 323.792 25.3672 324.512 25.2603C324.627 25.225 324.777 25.2068 324.967 25.2068C325.119 25.2068 325.233 25.2165 325.308 25.2336C324.475 25.7658 324.058 26.4584 324.058 27.3092C324.058 27.8243 324.247 28.2411 324.626 28.5596C325.006 28.8621 325.517 29.0128 326.161 29.0128C326.824 29.0128 327.355 28.8087 327.752 28.4004C328.169 27.975 328.378 27.4331 328.378 26.7769C328.378 26.1036 328.16 25.5264 327.723 25.0476Z" fill="black"></path>
  <defs>
  <pattern id="Sticky-duplicate-pattern0" patternContentUnits="objectBoundingBox" width="1" height="1">
  <use xlink:href="#Sticky-duplicate-image0_3006_211229" transform="scale(0.00132979 0.00174825)"></use>
  </pattern>
  <!-- <image id="Sticky-duplicate-image0_3006_211229" width="752" height="572" href="http://localhost:3000/chip.png">
  </image> -->
  <!-- <embed src="chip.png" width="752" height="572"></embed> -->
  </defs>
  </svg>