<svg xmlns="http://www.w3.org/2000/svg" xmlns:xlink="http://www.w3.org/1999/xlink" width="351" height="217" fill="none"><g clip-path="url(#a)"><path fill="#27BB86" d="M1.002 203.839c0 6.741 5.649 12.256 12.555 12.256h323.889c6.906 0 12.556-5.515 12.556-12.256V13.257c0-6.742-5.65-12.257-12.556-12.257H13.556C6.652 1 1.003 6.515 1.003 13.257v190.582Z"/><g stroke-linecap="round" opacity=".65" style="mix-blend-mode:overlay"><path stroke="url(#b)" d="M-72.865 105.564c20.023-28.114 46.696-46.529 85.857-50.782 121.287-13.171 227.831 91.391 347.053 34.04"/><path stroke="url(#c)" d="M-72.511 113.162c20.022-28.113 46.696-46.528 85.856-50.781 121.288-13.172 227.831 91.391 347.053 34.04"/><path stroke="url(#d)" d="M-73.281 99.728C-53.26 71.615-26.585 53.2 12.575 48.947c121.287-13.172 227.831 91.391 347.053 34.04"/><path stroke="url(#e)" d="M-75.23 92.662C-55.21 64.548-28.536 46.133 10.625 41.88c121.287-13.171 227.83 91.391 347.053 34.04"/><path stroke="url(#f)" d="M-76.057 86.422C-56.035 58.31-29.36 39.894 9.8 35.641 131.087 22.469 237.63 127.032 356.852 69.68"/><path stroke="url(#g)" d="M-76.885 80.184C-56.863 52.07-30.189 33.655 8.971 29.403c121.288-13.172 227.831 91.39 347.053 34.039"/><path stroke="url(#h)" d="M-68.439 138.863c20.022-28.113 46.696-46.528 85.856-50.78 121.288-13.172 227.831 91.39 347.054 34.038"/><path stroke="url(#i)" d="M-68.085 146.462C-48.063 118.348-21.39 99.933 17.77 95.68c121.288-13.171 227.831 91.391 347.053 34.039"/><path stroke="url(#j)" d="M-68.856 133.028C-48.834 104.914-22.16 86.498 17 82.246c121.288-13.171 227.831 91.391 347.054 34.039"/><path stroke="url(#k)" d="M-70.805 125.962c20.022-28.114 46.696-46.529 85.856-50.782C136.34 62.01 242.882 166.571 362.104 109.22"/><path stroke="url(#l)" d="M-71.631 119.721c20.022-28.113 46.696-46.528 85.856-50.78 121.288-13.172 227.831 91.39 347.053 34.038"/><path stroke="url(#m)" d="M-72.46 113.484c20.023-28.114 46.697-46.529 85.857-50.782 121.288-13.171 227.831 91.391 347.053 34.04"/></g><path fill="#fff" d="M29 188.201V179h1.23v8.124h4.588v1.077H29Zm11.9-1.461c0 .5.038 1.038.103 1.461h-1.14a8.63 8.63 0 0 1-.052-.692c-.41.487-1.153.807-2.025.807-1.217 0-2.217-.73-2.217-1.935 0-1.333 1.051-1.897 2.55-2.191l1.666-.333v-.41c0-.744-.538-1.064-1.358-1.064-.884 0-1.371.372-1.46 1.089h-1.128c.102-1.422 1.217-2.101 2.652-2.101 1.486 0 2.41.679 2.41 1.909v3.46Zm-1.115-.82v-1.166l-1.358.281c-1.025.206-1.704.487-1.704 1.295 0 .653.487 1.05 1.217 1.05.987 0 1.845-.602 1.845-1.46Zm3.671-1.064c0 1.525.82 2.473 2.012 2.473.922 0 1.473-.589 1.666-1.422l1.025.474c-.32 1.115-1.294 1.961-2.691 1.961-1.871 0-3.165-1.423-3.165-3.486 0-2.076 1.294-3.485 3.165-3.485 1.397 0 2.345.807 2.665 1.922l-1 .5c-.192-.821-.742-1.423-1.665-1.423-1.192 0-2.012.948-2.012 2.486Zm5.966 3.345V179h1.153v3.409a2.386 2.386 0 0 1 1.999-1.038c1.422 0 2.23.986 2.23 2.409v4.421H53.65v-4.114c0-.935-.397-1.64-1.397-1.64-.833 0-1.678.641-1.678 1.756v3.998H49.42ZM57.808 179v9.201h-1.154V179h1.154Zm6.756 7.74c0 .5.038 1.038.102 1.461h-1.14a8.682 8.682 0 0 1-.051-.692c-.41.487-1.154.807-2.025.807-1.217 0-2.217-.73-2.217-1.935 0-1.333 1.05-1.897 2.55-2.191l1.666-.333v-.41c0-.744-.538-1.064-1.358-1.064-.885 0-1.371.372-1.461 1.089h-1.128c.103-1.422 1.218-2.101 2.653-2.101 1.486 0 2.409.679 2.409 1.909v3.46Zm-1.115-.82v-1.166l-1.358.281c-1.025.206-1.705.487-1.705 1.295 0 .653.487 1.05 1.218 1.05.986 0 1.845-.602 1.845-1.46Zm2.979 2.281v-6.702h1.153v.91a2.385 2.385 0 0 1 2-1.038c1.421 0 2.229.986 2.229 2.409v4.421h-1.154v-4.114c0-.935-.397-1.64-1.396-1.64-.833 0-1.679.641-1.679 1.756v3.998h-1.153Zm9.987 0V179h3.396c1.948 0 2.986.859 2.986 2.396 0 1.179-.718 1.769-1.423 2.012 1.038.282 1.73 1.089 1.73 2.255 0 1.602-1.166 2.538-3.024 2.538h-3.665Zm1.192-5.254h2.101c1.23 0 1.91-.474 1.91-1.448 0-.987-.68-1.461-1.91-1.461h-2.101v2.909Zm0 1.051v3.165h2.422c1.23 0 1.896-.641 1.896-1.589 0-.936-.666-1.576-1.896-1.576h-2.422Zm10.413-2.525v1.166a2.666 2.666 0 0 0-.563-.051c-.974 0-1.756.769-1.756 1.948v3.665h-1.153v-6.702H85.7v1.14c.295-.679.949-1.191 1.858-1.191.18 0 .346.012.462.025Zm6.762 3.383c0 2.076-1.282 3.486-3.114 3.486-1.833 0-3.114-1.41-3.114-3.486 0-2.076 1.281-3.485 3.114-3.485 1.832 0 3.114 1.409 3.114 3.485Zm-5.062 0c0 1.525.769 2.499 1.948 2.499 1.179 0 1.948-.974 1.948-2.499 0-1.538-.77-2.511-1.948-2.511-1.179 0-1.948.973-1.948 2.511Zm9.594-3.357h.974l1.384 4.997 1.397-4.997h1.153l-2.038 6.702h-1.012l-1.397-4.972-1.396 4.972h-1.013l-2.037-6.702h1.192l1.41 4.985 1.383-4.985Zm6.032 6.702v-6.702h1.153v.91a2.387 2.387 0 0 1 1.999-1.038c1.423 0 2.23.986 2.23 2.409v4.421h-1.153v-4.114c0-.935-.398-1.64-1.397-1.64-.833 0-1.679.641-1.679 1.756v3.998h-1.153Z"/><path fill="url(#n)" d="M86.152 72.477H38.507v36.241h47.645v-36.24Z"/><path fill="#fff" fill-rule="evenodd" d="M191.338 32.81c0 .392-.321.712-.712.712h-11.297a.715.715 0 0 1-.713-.711c0-.392.321-.713.713-.713h11.297c.391 0 .712.321.712.713Zm.81 2.835c0 .391-.321.712-.712.712h-8.072a.715.715 0 0 1-.712-.712c0-.391.321-.712.712-.712h8.072c.391 0 .712.32.712.712Zm-.712-4.957h-7.262a.715.715 0 0 1-.712-.712c0-.392.321-.713.712-.713h7.262c.391 0 .712.321.712.713a.715.715 0 0 1-.712.712Zm8.364 2.123a3.527 3.527 0 0 1-3.533 3.532 3.536 3.536 0 0 1-3.532-3.532 3.537 3.537 0 0 1 3.532-3.534 3.536 3.536 0 0 1 3.533 3.534Zm-5.641 0a2.122 2.122 0 1 0 4.245 0 2.122 2.122 0 1 0-4.245 0Zm2.122-6.368c3.506 0 6.354 2.862 6.354 6.368 0 3.504-2.848 6.367-6.354 6.367h-9.677a.715.715 0 0 1-.712-.712c0-.39.321-.712.712-.712h9.677c2.723 0 4.944-2.22 4.944-4.958 0-2.737-2.221-4.957-4.944-4.957h-15.333a.715.715 0 0 1-.712-.712c0-.391.321-.712.712-.712h15.333v.028Zm24.564 8.727v-4.706c0-2.82 1.899-4.803 4.637-4.803 2.737 0 4.636 1.982 4.636 4.803v4.706c0 2.807-1.914 4.762-4.636 4.762-2.724 0-4.637-1.969-4.637-4.762Zm6.578.098v-4.901c0-1.55-.922-2.123-1.941-2.123-.964 0-1.914.516-1.914 2.095v4.901c0 1.55.908 2.095 1.914 2.095.921 0 1.941-.489 1.941-2.081v.014Zm9.593-7.024c-.936 0-1.913.516-1.913 2.095v4.901c0 1.634.977 2.122 1.913 2.122 1.257 0 1.941-.614 1.941-2.625v-.18h2.709c0 3.532-1.508 5.39-4.636 5.39-2.737 0-4.636-1.97-4.636-4.79v-4.749c0-2.806 1.899-4.762 4.636-4.762 3.072 0 4.636 2.026 4.636 5.237h-2.709v-.195c0-2.04-.991-2.458-1.941-2.458v.014Zm13.545 11.492-2.737-5.753h-1.019v5.754h-2.709v-13.84h2.709v5.698h1.019l2.737-5.697h3.031l-3.449 6.87 3.449 6.968h-3.031Zm8.072-11.227v3.142h3.743v2.36h-3.743v3.142h5.055v2.584h-7.75v-13.84h7.75v2.612h-5.055Zm12.317 0v11.227h-2.709V28.51h-2.877v-2.611h8.462v2.611h-2.876Zm21.436 11.227V25.898h2.709v13.838h-2.709Zm5.878-13.838h4.539c2.737 0 4.636 1.69 4.636 5.07v3.644c0 3.337-1.899 5.124-4.636 5.124h-4.539V25.898Zm2.71 11.269h1.522c1.299 0 2.276-.517 2.276-3.212v-2.694c0-1.495-.391-2.765-2.276-2.765h-1.522v8.671Zm11.94-8.658v3.142h3.742v2.36h-3.742v3.142h5.054v2.584h-7.749v-13.84h7.749v2.612h-5.054Zm6.912 1.201c0-2.528 1.801-4.064 4.538-4.064s4.511 1.788 4.511 4.636h-2.668c0-1.465-.726-2.164-1.884-2.164-1.159 0-1.802.545-1.802 1.592 0 2.751 6.521 1.117 6.521 6.061 0 2.625-1.885 4.203-4.678 4.203s-4.719-1.829-4.719-4.79h2.708c0 1.606.824 2.276 2.011 2.276 1.187 0 1.983-.53 1.983-1.661 0-2.625-6.521-1.174-6.521-6.089Zm-103.24 5.823 2.332 4.203h-2.96l-1.858-3.574-.335-.6h-1.466v4.175h-2.709v-13.84h4.385c3.896 0 4.622 3.24 4.622 5 0 1.955-.978 3.365-2.374 4.022.126.224.251.447.349.614h.014Zm-4.287-7.037v4.51h1.355c1.13 0 2.276-.503 2.276-2.276 0-1.788-1.089-2.234-2.276-2.234h-1.355Zm75.324 7.037 2.333 4.203h-2.96l-1.858-3.574-.335-.6h-1.466v4.175h-2.696v-13.84h4.385c3.896 0 4.622 3.24 4.622 5 0 1.955-.977 3.365-2.374 4.022.126.224.252.447.349.614Zm-4.286-7.037v4.51h1.354c1.131 0 2.276-.503 2.276-2.276 0-1.788-1.089-2.234-2.276-2.234h-1.354Z" clip-rule="evenodd"/><path fill="#fff" d="m293.471 173.427-4.875 23.419h-5.921l4.876-23.419h5.92Zm24.554 15.132 3.135-8.827 1.741 8.827h-4.876Zm6.617 8.287h5.399l-4.702-23.419h-5.05c-1.045 0-2.09.72-2.438 1.801l-8.707 21.618h6.095l1.219-3.423h7.488l.696 3.423Zm-15.324-7.746c0-6.125-8.184-6.486-8.184-9.188.174-1.261 1.219-1.982 2.438-1.982 1.915-.18 4.005.181 5.746 1.081l1.045-5.044a14.437 14.437 0 0 0-5.398-1.081c-5.747 0-9.926 3.243-9.926 7.747 0 3.423 2.96 5.224 5.05 6.305 2.264 1.081 3.134 1.802 2.96 2.882 0 1.622-1.741 2.342-3.483 2.342-2.089 0-4.179-.54-6.095-1.441l-1.044 5.044c2.089.901 4.353 1.261 6.443 1.261 6.443.181 10.448-3.062 10.448-7.926Zm-24.205-15.673-9.404 23.419h-6.269l-4.702-18.735c0-.901-.696-1.622-1.393-1.982-1.741-.901-3.657-1.621-5.746-1.982l.174-.72h9.926c1.393 0 2.438 1.081 2.612 2.342l2.438 13.511 6.269-15.853h6.095Z"/></g><defs><linearGradient id="b" x1="779.544" x2="768.432" y1="-29.155" y2="174.827" gradientUnits="userSpaceOnUse"><stop offset=".615" stop-color="#27BB86"/><stop offset="1" stop-color="#fff"/></linearGradient><linearGradient id="c" x1="779.898" x2="768.785" y1="-21.557" y2="182.426" gradientUnits="userSpaceOnUse"><stop offset=".615" stop-color="#27BB86"/><stop offset="1" stop-color="#fff"/></linearGradient><linearGradient id="d" x1="779.127" x2="768.015" y1="-34.991" y2="168.992" gradientUnits="userSpaceOnUse"><stop offset=".615" stop-color="#27BB86"/><stop offset="1" stop-color="#fff"/></linearGradient><linearGradient id="e" x1="777.178" x2="766.066" y1="-42.057" y2="161.925" gradientUnits="userSpaceOnUse"><stop offset=".615" stop-color="#27BB86"/><stop offset="1" stop-color="#fff"/></linearGradient><linearGradient id="f" x1="776.352" x2="765.239" y1="-48.297" y2="155.686" gradientUnits="userSpaceOnUse"><stop offset=".615" stop-color="#27BB86"/><stop offset="1" stop-color="#fff"/></linearGradient><linearGradient id="g" x1="775.524" x2="764.411" y1="-54.535" y2="149.447" gradientUnits="userSpaceOnUse"><stop offset=".615" stop-color="#27BB86"/><stop offset="1" stop-color="#fff"/></linearGradient><linearGradient id="h" x1="783.97" x2="772.858" y1="4.144" y2="208.127" gradientUnits="userSpaceOnUse"><stop offset=".615" stop-color="#27BB86"/><stop offset="1" stop-color="#fff"/></linearGradient><linearGradient id="i" x1="784.323" x2="773.211" y1="11.742" y2="215.725" gradientUnits="userSpaceOnUse"><stop offset=".615" stop-color="#27BB86"/><stop offset="1" stop-color="#fff"/></linearGradient><linearGradient id="j" x1="783.553" x2="772.441" y1="-1.692" y2="202.291" gradientUnits="userSpaceOnUse"><stop offset=".615" stop-color="#27BB86"/><stop offset="1" stop-color="#fff"/></linearGradient><linearGradient id="k" x1="781.604" x2="770.491" y1="-8.757" y2="195.225" gradientUnits="userSpaceOnUse"><stop offset=".615" stop-color="#27BB86"/><stop offset="1" stop-color="#fff"/></linearGradient><linearGradient id="l" x1="780.778" x2="769.665" y1="-14.998" y2="188.985" gradientUnits="userSpaceOnUse"><stop offset=".615" stop-color="#27BB86"/><stop offset="1" stop-color="#fff"/></linearGradient><linearGradient id="m" x1="779.949" x2="768.837" y1="-21.235" y2="182.747" gradientUnits="userSpaceOnUse"><stop offset=".615" stop-color="#27BB86"/><stop offset="1" stop-color="#fff"/></linearGradient><clipPath id="a"><rect width="349" height="215.096" x="1" y="1" fill="#fff" rx="14.645"/></clipPath><pattern id="n" width="1" height="1" patternContentUnits="objectBoundingBox"><use xlink:href="#o" transform="scale(.00133 .00175)"/></pattern>
<!-- <image xlink:href="https://images.ctfassets.net/fzn2n1nzq965/1lCtk48IB26AGgXdHsrLrt/ad2816d6a744d5249c19ba66be22b0a6/chip.png" id="o" width="752" height="572"/> -->
</defs></svg>