 <svg width="351" height="217" viewBox="0 0 351 217" fill="none" xmlns="http://www.w3.org/2000/svg" xmlns:xlink="http://www.w3.org/1999/xlink">
    <g clip-path="url(#Sticky-duplicate-clip0_3053_210393)">
    <rect x="1" y="1" width="349" height="215.262" rx="14.1737" fill="black"></rect>
    <mask id="Sticky-duplicate-mask0_3053_210393" style="mask-type:alpha" maskUnits="userSpaceOnUse" x="1" y="1" width="349" height="216">
    <rect x="1" y="1" width="349" height="215.262" fill="white"></rect>
    </mask>
    <g mask="url(#Sticky-duplicate-mask0_3053_210393)">
    <mask id="Sticky-duplicate-mask1_3053_210393" style="mask-type:luminance" maskUnits="userSpaceOnUse" x="264" y="158" width="72" height="44">
    <path d="M335.914 158.001H264.808V201.945H335.914V158.001Z" fill="white"></path>
    </mask>
    <g mask="url(#Sticky-duplicate-mask1_3053_210393)">
    <path d="M309.979 162.698H290.746V197.248H309.979V162.698Z" fill="#F16122"></path>
    <path d="M291.971 179.98C291.971 172.97 295.246 166.726 300.361 162.698C296.626 159.757 291.901 158.001 286.786 158.001C274.647 158.001 264.808 167.841 264.808 179.98C264.808 192.119 274.647 201.959 286.786 201.959C291.915 201.959 296.626 200.202 300.361 197.262C295.246 193.234 291.971 186.99 291.971 179.98Z" fill="#ED1C24"></path>
    <path d="M333.807 193.597V192.887H334.086V192.747H333.361V192.887H333.64V193.597H333.793H333.807ZM335.215 193.597V192.747H334.992L334.742 193.332L334.49 192.747H334.267V193.597H334.421V192.956L334.658 193.513H334.825L335.062 192.956V193.597H335.215Z" fill="#F99F1C"></path>
    <path d="M335.914 179.98C335.914 192.119 326.074 201.959 313.935 201.959C308.806 201.959 304.095 200.202 300.36 197.262C305.475 193.234 308.75 186.99 308.75 179.98C308.75 172.97 305.475 166.726 300.36 162.698C304.095 159.757 308.82 158.001 313.935 158.001C326.074 158.001 335.914 167.841 335.914 179.98Z" fill="#F99F1C"></path>
    </g>
    <path d="M268.978 135.144C269.437 135.144 269.867 135.227 270.256 135.394C270.659 135.561 270.992 135.797 271.256 136.13L270.395 137.047C270.172 136.838 269.951 136.686 269.714 136.574C269.478 136.463 269.214 136.408 268.922 136.408C268.672 136.408 268.423 136.45 268.2 136.547C267.978 136.644 267.784 136.769 267.63 136.95C267.464 137.116 267.339 137.325 267.255 137.575C267.158 137.811 267.117 138.075 267.117 138.366C267.117 138.658 267.158 138.922 267.255 139.159C267.353 139.395 267.478 139.603 267.63 139.783C267.797 139.95 267.978 140.089 268.2 140.186C268.423 140.283 268.659 140.325 268.922 140.325C269.214 140.325 269.492 140.269 269.742 140.145C269.992 140.019 270.228 139.867 270.423 139.686L271.242 140.603C270.965 140.923 270.631 141.172 270.228 141.339C269.84 141.506 269.409 141.589 268.95 141.589C268.464 141.589 268.02 141.506 267.63 141.339C267.228 141.172 266.895 140.95 266.616 140.659C266.339 140.367 266.117 140.033 265.964 139.644C265.811 139.256 265.728 138.825 265.728 138.366C265.728 137.908 265.811 137.478 265.964 137.089C266.117 136.7 266.339 136.352 266.616 136.075C266.895 135.783 267.242 135.561 267.63 135.394C268.033 135.227 268.464 135.144 268.95 135.144H268.978Z" fill="white"></path>
    <path d="M275.478 135.144C275.951 135.144 276.395 135.227 276.798 135.394C277.201 135.561 277.548 135.783 277.839 136.075C278.131 136.366 278.368 136.7 278.534 137.089C278.701 137.478 278.784 137.908 278.784 138.366C278.784 138.825 278.701 139.256 278.534 139.644C278.368 140.033 278.131 140.381 277.839 140.659C277.548 140.95 277.201 141.172 276.798 141.339C276.395 141.506 275.964 141.589 275.478 141.589C274.992 141.589 274.562 141.506 274.159 141.339C273.756 141.172 273.409 140.95 273.117 140.659C272.826 140.367 272.589 140.033 272.436 139.644C272.27 139.256 272.187 138.825 272.187 138.366C272.187 137.908 272.27 137.478 272.436 137.089C272.603 136.7 272.826 136.352 273.117 136.075C273.409 135.783 273.756 135.561 274.159 135.394C274.562 135.227 275.006 135.144 275.478 135.144ZM275.478 136.408C275.201 136.408 274.95 136.45 274.714 136.547C274.478 136.644 274.284 136.769 274.103 136.95C273.936 137.116 273.797 137.325 273.7 137.575C273.603 137.811 273.548 138.075 273.548 138.366C273.548 138.658 273.603 138.922 273.7 139.159C273.797 139.395 273.936 139.603 274.103 139.783C274.27 139.95 274.478 140.089 274.714 140.186C274.95 140.283 275.201 140.325 275.478 140.325C275.756 140.325 276.006 140.283 276.242 140.186C276.478 140.089 276.673 139.95 276.853 139.783C277.02 139.617 277.159 139.408 277.256 139.159C277.353 138.922 277.409 138.658 277.409 138.366C277.409 138.075 277.353 137.811 277.256 137.575C277.159 137.339 277.02 137.13 276.853 136.95C276.686 136.769 276.478 136.644 276.242 136.547C276.006 136.45 275.756 136.408 275.478 136.408Z" fill="white"></path>
    <path d="M287.993 135.144C288.354 135.144 288.688 135.2 288.993 135.325C289.299 135.449 289.563 135.616 289.785 135.824C290.007 136.033 290.174 136.297 290.299 136.589C290.424 136.88 290.48 137.213 290.48 137.575V141.422H289.132V138.019C289.132 137.505 289.008 137.103 288.757 136.825C288.507 136.547 288.16 136.408 287.702 136.408C287.48 136.408 287.285 136.45 287.09 136.519C286.896 136.589 286.729 136.686 286.59 136.825C286.451 136.964 286.34 137.13 286.243 137.339C286.16 137.547 286.118 137.769 286.118 138.033V141.422H284.771V138.019C284.771 137.505 284.646 137.103 284.396 136.825C284.146 136.547 283.798 136.408 283.34 136.408C283.118 136.408 282.923 136.45 282.729 136.519C282.535 136.589 282.368 136.686 282.229 136.825C282.09 136.964 281.979 137.13 281.881 137.339C281.798 137.547 281.757 137.769 281.757 138.033V141.422H280.409V135.297H281.742V136.047C281.868 135.867 282.006 135.713 282.16 135.603C282.312 135.492 282.465 135.394 282.632 135.325C282.798 135.255 282.965 135.213 283.131 135.186C283.298 135.158 283.465 135.144 283.618 135.144C284.09 135.144 284.507 135.241 284.868 135.436C285.229 135.63 285.521 135.894 285.729 136.242C285.854 136.019 286.021 135.839 286.202 135.7C286.382 135.561 286.562 135.449 286.771 135.366C286.965 135.283 287.174 135.228 287.382 135.2C287.591 135.172 287.785 135.158 287.979 135.158L287.993 135.144Z" fill="white"></path>
    <path d="M300.066 135.144C300.427 135.144 300.76 135.2 301.066 135.325C301.371 135.449 301.635 135.616 301.858 135.824C302.08 136.033 302.246 136.297 302.372 136.589C302.496 136.88 302.552 137.213 302.552 137.575V141.422H301.204V138.019C301.204 137.505 301.08 137.103 300.829 136.825C300.58 136.547 300.233 136.408 299.774 136.408C299.552 136.408 299.357 136.45 299.163 136.519C298.968 136.589 298.802 136.686 298.662 136.825C298.524 136.964 298.413 137.13 298.315 137.339C298.232 137.547 298.191 137.769 298.191 138.033V141.422H296.843V138.019C296.843 137.505 296.718 137.103 296.468 136.825C296.218 136.547 295.871 136.408 295.413 136.408C295.19 136.408 294.995 136.45 294.802 136.519C294.607 136.589 294.44 136.686 294.301 136.825C294.162 136.964 294.051 137.13 293.954 137.339C293.871 137.547 293.829 137.769 293.829 138.033V141.422H292.481V135.297H293.815V136.047C293.94 135.867 294.079 135.713 294.232 135.603C294.384 135.492 294.537 135.394 294.704 135.325C294.871 135.255 295.038 135.213 295.204 135.186C295.37 135.158 295.537 135.144 295.69 135.144C296.163 135.144 296.579 135.241 296.941 135.436C297.301 135.63 297.593 135.894 297.802 136.242C297.927 136.019 298.093 135.839 298.274 135.7C298.454 135.561 298.635 135.449 298.843 135.366C299.038 135.283 299.246 135.228 299.455 135.2C299.663 135.172 299.858 135.158 300.051 135.158L300.066 135.144Z" fill="white"></path>
    <path d="M307.192 135.144C307.622 135.144 308.011 135.227 308.358 135.38C308.719 135.533 309.025 135.755 309.275 136.033C309.525 136.311 309.72 136.658 309.872 137.047C310.011 137.436 310.081 137.88 310.081 138.353C310.081 138.436 310.081 138.519 310.081 138.603C310.081 138.686 310.081 138.769 310.067 138.853H305.538C305.58 139.131 305.664 139.367 305.775 139.561C305.886 139.755 306.025 139.922 306.191 140.047C306.358 140.173 306.539 140.269 306.733 140.325C306.927 140.381 307.136 140.409 307.358 140.409C307.664 140.409 307.969 140.353 308.275 140.242C308.581 140.13 308.873 139.964 309.122 139.77L309.789 140.728C309.414 141.047 309.011 141.27 308.594 141.395C308.178 141.519 307.733 141.589 307.275 141.589C306.817 141.589 306.4 141.519 306.011 141.353C305.622 141.2 305.302 140.978 305.025 140.7C304.747 140.422 304.539 140.075 304.386 139.686C304.233 139.283 304.149 138.853 304.149 138.366C304.149 137.88 304.219 137.45 304.372 137.061C304.524 136.658 304.733 136.325 304.997 136.047C305.261 135.769 305.58 135.547 305.956 135.394C306.331 135.241 306.747 135.158 307.192 135.158V135.144ZM307.164 136.339C306.927 136.339 306.719 136.38 306.525 136.45C306.344 136.519 306.178 136.63 306.052 136.755C305.913 136.894 305.802 137.047 305.719 137.241C305.636 137.422 305.58 137.631 305.538 137.852H308.719C308.65 137.38 308.483 137.005 308.206 136.741C307.942 136.478 307.594 136.339 307.164 136.339Z" fill="white"></path>
    <path d="M314.844 135.144C315.052 135.144 315.233 135.158 315.399 135.186C315.566 135.213 315.719 135.255 315.872 135.311L315.552 136.63C315.413 136.561 315.246 136.505 315.066 136.463C314.871 136.422 314.705 136.408 314.538 136.408C314.33 136.408 314.136 136.45 313.955 136.519C313.774 136.589 313.621 136.7 313.497 136.838C313.371 136.977 313.274 137.158 313.191 137.352C313.122 137.561 313.079 137.783 313.079 138.047V141.409H311.746V135.297H313.066V135.991C313.274 135.7 313.524 135.477 313.83 135.352C314.136 135.213 314.468 135.144 314.844 135.144Z" fill="white"></path>
    <path d="M319.748 135.144C320.207 135.144 320.638 135.227 321.027 135.394C321.429 135.561 321.763 135.797 322.026 136.13L321.165 137.047C320.944 136.838 320.721 136.686 320.485 136.574C320.249 136.463 319.985 136.408 319.693 136.408C319.443 136.408 319.193 136.45 318.971 136.547C318.749 136.644 318.554 136.769 318.402 136.95C318.235 137.116 318.11 137.325 318.027 137.575C317.929 137.811 317.887 138.075 317.887 138.366C317.887 138.658 317.929 138.922 318.027 139.159C318.123 139.395 318.248 139.603 318.402 139.783C318.568 139.95 318.749 140.089 318.971 140.186C319.193 140.283 319.429 140.325 319.693 140.325C319.985 140.325 320.262 140.269 320.513 140.145C320.763 140.019 320.999 139.867 321.193 139.686L322.013 140.603C321.735 140.923 321.402 141.172 320.999 141.339C320.61 141.506 320.179 141.589 319.721 141.589C319.235 141.589 318.79 141.506 318.402 141.339C317.999 141.172 317.665 140.95 317.388 140.659C317.109 140.367 316.887 140.033 316.734 139.644C316.582 139.256 316.498 138.825 316.498 138.366C316.498 137.908 316.582 137.478 316.734 137.089C316.887 136.7 317.109 136.352 317.388 136.075C317.665 135.783 318.012 135.561 318.402 135.394C318.804 135.227 319.235 135.144 319.721 135.144H319.748Z" fill="white"></path>
    <path d="M324.872 141.421H323.525V135.296H324.872V141.421Z" fill="white"></path>
    <path d="M332.844 141.422H331.511V140.686C331.303 140.964 331.039 141.172 330.72 141.339C330.4 141.506 330.025 141.575 329.594 141.575C329.164 141.575 328.761 141.492 328.399 141.339C328.024 141.186 327.705 140.95 327.428 140.672C327.149 140.381 326.927 140.047 326.774 139.658C326.622 139.269 326.538 138.839 326.538 138.366C326.538 137.894 326.622 137.464 326.774 137.074C326.927 136.686 327.149 136.339 327.428 136.06C327.705 135.769 328.024 135.547 328.399 135.394C328.774 135.241 329.164 135.158 329.594 135.158C330.025 135.158 330.414 135.241 330.72 135.408C331.039 135.574 331.303 135.783 331.511 136.06V135.325H332.844V141.422ZM329.747 136.394C329.455 136.394 329.205 136.45 328.969 136.547C328.747 136.658 328.553 136.797 328.386 136.963C328.233 137.144 328.108 137.352 328.024 137.588C327.941 137.824 327.9 138.075 327.9 138.353C327.9 138.63 327.941 138.881 328.024 139.117C328.108 139.352 328.233 139.561 328.386 139.742C328.538 139.922 328.733 140.061 328.969 140.158C329.192 140.255 329.455 140.311 329.747 140.311C330.039 140.311 330.275 140.255 330.497 140.158C330.72 140.061 330.914 139.922 331.08 139.742C331.247 139.561 331.372 139.367 331.455 139.117C331.539 138.881 331.594 138.617 331.594 138.339C331.594 138.061 331.553 137.797 331.455 137.561C331.372 137.325 331.247 137.117 331.08 136.936C330.914 136.755 330.72 136.63 330.497 136.519C330.275 136.422 330.025 136.366 329.747 136.366V136.394Z" fill="white"></path>
    <path d="M336.291 141.42H334.943V132.795H336.291V141.42Z" fill="white"></path>
    <path d="M324.191 132.589C324.316 132.589 324.442 132.617 324.566 132.658C324.677 132.714 324.774 132.77 324.872 132.853C324.955 132.937 325.025 133.033 325.066 133.158C325.122 133.269 325.136 133.395 325.136 133.534C325.136 133.672 325.108 133.784 325.066 133.908C325.011 134.02 324.955 134.117 324.872 134.2C324.789 134.283 324.691 134.353 324.566 134.395C324.442 134.437 324.33 134.465 324.191 134.465C324.052 134.465 323.941 134.437 323.816 134.395C323.691 134.353 323.608 134.283 323.524 134.2C323.441 134.117 323.372 134.02 323.33 133.908C323.289 133.798 323.261 133.672 323.261 133.534C323.261 133.395 323.289 133.284 323.33 133.158C323.372 133.048 323.441 132.95 323.524 132.853C323.608 132.77 323.705 132.7 323.816 132.658C323.927 132.603 324.052 132.589 324.191 132.589Z" fill="white"></path>
    <path d="M223.957 33.5644L228.86 28.7278L226.178 28.7278L219.275 35.6968L219.275 28.7278H217.406V42.9736H219.275V38.0052L221.605 35.8287L222.374 35.0813C223.539 35.8287 226.046 38.0492 226.112 42.9956H228.266C228.2 37.5655 225.584 34.7735 223.957 33.5644ZM239.233 28.7278L236.573 28.7278L231.208 42.9736H233.187L234.726 38.7087H240.838L242.289 42.9736H244.399L239.233 28.7278ZM235.276 37.1478L237.562 30.8383L238.09 30.8383L240.222 37.1478L235.276 37.1478ZM255.439 28.7278L251.394 40.8631H251.086L247.063 28.7278H244.931L250.119 42.9736H252.405L257.593 28.7278L255.439 28.7278ZM270.65 28.7278V34.6196L262.845 34.6196V28.7278H260.911L260.911 42.9736H262.845V36.3124L270.65 36.3124V42.9736H272.606V28.7278L270.65 28.7278ZM283.545 28.3321C279.477 28.3321 276.422 31.6957 276.422 35.8287C276.422 39.9618 279.477 43.3254 283.545 43.3254C287.612 43.3254 290.689 39.9618 290.689 35.8287C290.689 31.6957 287.612 28.3321 283.545 28.3321ZM283.545 41.5447C280.445 41.5447 278.4 38.9725 278.4 35.8287C278.4 32.663 280.445 30.1128 283.545 30.1128C286.644 30.1128 288.689 32.685 288.689 35.8287C288.689 38.9725 286.644 41.5447 283.545 41.5447ZM296.428 41.2149L296.428 28.7278L294.515 28.7278V42.9736L304.057 42.9736V41.2149H296.428ZM318.503 28.7278L314.436 38.8626L310.325 28.7278L307.335 28.7278V42.9736H309.16V34.5756C309.16 34.2239 309.16 33.6963 309.138 32.9928C309.116 32.2673 309.116 31.3 309.116 30.9482H309.314L309.358 30.9702L313.447 41.061L315.359 41.061L319.449 30.9702C319.449 30.9922 319.668 30.9482 319.668 30.9922C319.668 31.6957 319.668 32.4871 319.668 33.1247C319.646 33.7842 319.646 34.2679 319.646 34.5756V42.9736H321.493V28.7278L318.503 28.7278Z" fill="white"></path>
    <path d="M86.2169 72.533H38.5352V108.801H86.2169V72.533Z" fill="url(#Sticky-duplicate-pattern0)"></path>
    <path d="M28.8267 188.016C29.2627 188.106 29.6475 188.145 30.1348 188.145C31.9173 188.145 32.9433 187.324 32.9433 185.477V178.834H31.7122V185.387C31.7122 186.644 31.1351 187.042 29.9937 187.042C29.5833 187.042 29.2756 187.003 28.8267 186.913V188.016ZM39.587 186.58V183.118C39.587 181.886 38.6636 181.207 37.176 181.207C35.7397 181.207 34.624 181.886 34.5214 183.31H35.65C35.7397 182.592 36.2271 182.22 37.1119 182.22C37.9327 182.22 38.4713 182.54 38.4713 183.284V183.695L36.8041 184.028C35.3037 184.323 34.2521 184.887 34.2521 186.221C34.2521 187.426 35.2524 188.157 36.4707 188.157C37.3428 188.157 38.0866 187.837 38.4969 187.349C38.5098 187.619 38.5226 187.85 38.5482 188.042H39.6896C39.6255 187.619 39.587 187.08 39.587 186.58ZM38.4713 185.759C38.4713 186.619 37.6121 187.221 36.6246 187.221C35.8936 187.221 35.4063 186.824 35.4063 186.17C35.4063 185.362 36.086 185.08 37.1119 184.874L38.4713 184.592V185.759ZM41.4524 188.042H42.6066V184.041C42.6066 182.925 43.453 182.284 44.2865 182.284C45.2868 182.284 45.6844 182.989 45.6844 183.925V188.042H46.8385V183.618C46.8385 182.194 46.0306 181.207 44.6071 181.207C43.6581 181.207 42.9913 181.694 42.6066 182.245V181.335H41.4524V188.042ZM51.3713 188.183C52.705 188.183 53.7181 187.452 54.1285 186.259L53.1154 185.9C52.9102 186.695 52.269 187.183 51.3713 187.183C50.2043 187.183 49.3964 186.285 49.3322 184.874H54.1798V184.49C54.1798 182.63 53.1923 181.207 51.32 181.207C49.4989 181.207 48.2294 182.694 48.2294 184.695C48.2294 186.76 49.5118 188.183 51.3713 188.183ZM51.3072 182.194C52.4741 182.194 52.9871 183.041 53.0128 183.99H49.3964C49.6015 182.848 50.3325 182.194 51.3072 182.194ZM58.373 188.042H61.2969C64.0925 188.042 65.8623 186.247 65.8623 183.438C65.8623 180.63 64.0925 178.834 61.2969 178.834H58.373V188.042ZM59.5784 186.978V179.899H61.284C63.3872 179.899 64.6568 181.284 64.6568 183.438C64.6568 185.58 63.3872 186.978 61.2969 186.978H59.5784ZM67.2623 180.168H68.5191V178.834H67.2623V180.168ZM68.4678 181.335H67.3136V188.042H68.4678V181.335ZM75.2291 186.58V183.118C75.2291 181.886 74.3058 181.207 72.8182 181.207C71.3818 181.207 70.2661 181.886 70.1636 183.31H71.2921C71.3818 182.592 71.8692 182.22 72.754 182.22C73.5748 182.22 74.1134 182.54 74.1134 183.284V183.695L72.4463 184.028C70.9458 184.323 69.8942 184.887 69.8942 186.221C69.8942 187.426 70.8945 188.157 72.1128 188.157C72.9849 188.157 73.7287 187.837 74.139 187.349C74.1519 187.619 74.1647 187.85 74.1903 188.042H75.3317C75.2676 187.619 75.2291 187.08 75.2291 186.58ZM74.1134 185.759C74.1134 186.619 73.2542 187.221 72.2667 187.221C71.5357 187.221 71.0484 186.824 71.0484 186.17C71.0484 185.362 71.7281 185.08 72.754 184.874L74.1134 184.592V185.759ZM81.942 187.055H78.1076L81.9036 182.22V181.335H76.7098V182.322H80.5314L76.6585 187.17V188.042H81.942V187.055Z" fill="white"></path>
    </g>
    </g>
    <defs>
    <pattern id="Sticky-duplicate-pattern0" patternContentUnits="objectBoundingBox" width="1" height="1">
    <use xlink:href="#Sticky-duplicate-image0_3053_210393" transform="scale(0.00132979 0.00174825)"></use>
    </pattern>
    <clipPath id="Sticky-duplicate-clip0_3053_210393">
    <rect x="1" y="1" width="349" height="215.262" rx="14.6562" fill="white"></rect>
    </clipPath>
    <!-- <image id="Sticky-duplicate-image0_3053_210393" width="752" height="572" xlink:href="https://images.ctfassets.net/fzn2n1nzq965/1lCtk48IB26AGgXdHsrLrt/ad2816d6a744d5249c19ba66be22b0a6/chip.png"></image> -->
    </defs>
  </svg>